<?xml version="1.0" encoding="UTF-8" standalone="no"?>
<svg
   xmlns:dc="http://purl.org/dc/elements/1.1/"
   xmlns:cc="http://creativecommons.org/ns#"
   xmlns:rdf="http://www.w3.org/1999/02/22-rdf-syntax-ns#"
   xmlns:svg="http://www.w3.org/2000/svg"
   xmlns="http://www.w3.org/2000/svg"
   xmlns:sodipodi="http://sodipodi.sourceforge.net/DTD/sodipodi-0.dtd"
   xmlns:inkscape="http://www.inkscape.org/namespaces/inkscape"
   width="210mm"
   height="297mm"
   viewBox="0 0 210 297"
   version="1.1"
   id="svg2076"
   inkscape:version="1.0.1 (3bc2e813f5, 2020-09-07)"
   sodipodi:docname="Star in circle.svg">
  <defs
     id="defs2070" />
  <sodipodi:namedview
     id="base"
     pagecolor="#ffffff"
     bordercolor="#666666"
     borderopacity="1.0"
     inkscape:pageopacity="0.0"
     inkscape:pageshadow="2"
     inkscape:zoom="0.7"
     inkscape:cx="311.24593"
     inkscape:cy="492.43238"
     inkscape:document-units="mm"
     inkscape:current-layer="layer1"
     inkscape:document-rotation="0"
     showgrid="false"
     inkscape:window-width="1835"
     inkscape:window-height="1016"
     inkscape:window-x="2005"
     inkscape:window-y="27"
     inkscape:window-maximized="1" />
  <metadata
     id="metadata2073">
    <rdf:RDF>
      <cc:Work
         rdf:about="">
        <dc:format>image/svg+xml</dc:format>
        <dc:type
           rdf:resource="http://purl.org/dc/dcmitype/StillImage" />
        <dc:title></dc:title>
      </cc:Work>
    </rdf:RDF>
  </metadata>
  <g
     inkscape:label="Capa 1"
     inkscape:groupmode="layer"
     id="layer1">
    <path
       id="path2078"
       style="fill:#ff0000;fill-rule:evenodd;stroke-width:0.999999"
       d="M 392.06445 151.18164 A 297.8671 297.8671 0 0 0 326.27734 158.66992 C 337.67727 194.00516 353.4324 225.68075 384.76758 233.94141 C 426.62692 244.97647 464.87047 205.98255 499.61133 171.05469 A 297.8671 297.8671 0 0 0 392.63867 151.18164 A 297.8671 297.8671 0 0 0 392.06445 151.18164 z M 264.6543 180.08008 A 297.8671 297.8671 0 0 0 130.43359 307.72461 C 183.19772 309.62074 247.35148 317.57044 273.30859 277.24414 C 291.22002 249.41741 280.66388 214.54603 264.6543 180.08008 z M 569.94727 209.70508 C 525.35657 241.70789 457.43697 274.21468 460.39258 326.5625 C 465.399 415.23302 666.08458 424.4444 618.01562 499.12305 C 569.94667 573.8017 478.45742 394.94534 395.67383 427.10742 C 312.89022 459.2695 366.14532 652.9811 280.26758 630.3418 C 194.38983 607.70249 336.22028 465.42022 280.05078 396.62695 C 242.9024 351.1297 156.94868 384.04694 101.53906 385.91602 A 297.8671 297.8671 0 0 0 94.771484 449.04883 A 297.8671 297.8671 0 0 0 392.63867 746.91602 A 297.8671 297.8671 0 0 0 690.50586 449.04883 A 297.8671 297.8671 0 0 0 569.94727 209.70508 z "
       transform="scale(0.26458333)" />
  </g>
</svg>
