o Box
v 0.5 2.1478471019396093 1.9092521353119558
v 0.5 2.1478471019396093 0.9092521353119558
v 0.5 1.1478471019396093 1.9092521353119558
v 0.5 1.1478471019396093 0.9092521353119558
v -0.5 2.1478471019396093 0.9092521353119558
v -0.5 2.1478471019396093 1.9092521353119558
v -0.5 1.1478471019396093 0.9092521353119558
v -0.5 1.1478471019396093 1.9092521353119558
v -0.5 2.1478471019396093 0.9092521353119558
v 0.5 2.1478471019396093 0.9092521353119558
v -0.5 2.1478471019396093 1.9092521353119558
v 0.5 2.1478471019396093 1.9092521353119558
v -0.5 1.1478471019396093 1.9092521353119558
v 0.5 1.1478471019396093 1.9092521353119558
v -0.5 1.1478471019396093 0.9092521353119558
v 0.5 1.1478471019396093 0.9092521353119558
v -0.5 2.1478471019396093 1.9092521353119558
v 0.5 2.1478471019396093 1.9092521353119558
v -0.5 1.1478471019396093 1.9092521353119558
v 0.5 1.1478471019396093 1.9092521353119558
v 0.5 2.1478471019396093 0.9092521353119558
v -0.5 2.1478471019396093 0.9092521353119558
v 0.5 1.1478471019396093 0.9092521353119558
v -0.5 1.1478471019396093 0.9092521353119558
vt 0 1
vt 1 1
vt 0 0
vt 1 0
vt 0 1
vt 1 1
vt 0 0
vt 1 0
vt 0 1
vt 1 1
vt 0 0
vt 1 0
vt 0 1
vt 1 1
vt 0 0
vt 1 0
vt 0 1
vt 1 1
vt 0 0
vt 1 0
vt 0 1
vt 1 1
vt 0 0
vt 1 0
vn 1 0 0
vn 1 0 0
vn 1 0 0
vn 1 0 0
vn -1 0 0
vn -1 0 0
vn -1 0 0
vn -1 0 0
vn 0 1 0
vn 0 1 0
vn 0 1 0
vn 0 1 0
vn 0 -1 0
vn 0 -1 0
vn 0 -1 0
vn 0 -1 0
vn 0 0 1
vn 0 0 1
vn 0 0 1
vn 0 0 1
vn 0 0 -1
vn 0 0 -1
vn 0 0 -1
vn 0 0 -1
f 1/1/1 3/3/3 2/2/2
f 3/3/3 4/4/4 2/2/2
f 5/5/5 7/7/7 6/6/6
f 7/7/7 8/8/8 6/6/6
f 9/9/9 11/11/11 10/10/10
f 11/11/11 12/12/12 10/10/10
f 13/13/13 15/15/15 14/14/14
f 15/15/15 16/16/16 14/14/14
f 17/17/17 19/19/19 18/18/18
f 19/19/19 20/20/20 18/18/18
f 21/21/21 23/23/23 22/22/22
f 23/23/23 24/24/24 22/22/22
o Plane
v 3.815059085575426 4.257381949531051 -0.28104265999432837
v -3.815059085575426 4.257381949531052 0.2810426599943287
v 3.815059085575426 1.504564016366274 -0.2810426599943287
v -3.815059085575426 1.5045640163662748 0.28104265999432837
vt 0 1
vt 1 1
vt 0 0
vt 1 0
vn 0.07346758349019038 -1.2213373205202985e-16 0.9972976056203643
vn 0.07346758349019038 -1.2213373205202985e-16 0.9972976056203643
vn 0.07346758349019038 -1.2213373205202985e-16 0.9972976056203643
vn 0.07346758349019038 -1.2213373205202985e-16 0.9972976056203643
f 25/25/25 27/27/27 26/26/26
f 27/27/27 28/28/28 26/26/26
o Sphere
v 1.58490237244812 3.9410594096961784 0.4937099785097072
v 1.58490237244812 3.9410594096961784 0.4937099785097072
v 1.58490237244812 3.9410594096961784 0.4937099785097072
v 1.58490237244812 3.9410594096961784 0.4937099785097072
v 1.58490237244812 3.9410594096961784 0.4937099785097072
v 1.58490237244812 3.9410594096961784 0.4937099785097072
v 1.58490237244812 3.9410594096961784 0.4937099785097072
v 1.58490237244812 3.9410594096961784 0.4937099785097072
v 1.58490237244812 3.9410594096961784 0.4937099785097072
v 1.08490237244812 3.8070847979369926 0.4937099785097072
v 1.2313489879056547 3.8070847979369926 0.8472633630521724
v 1.58490237244812 3.8070847979369926 0.9937099785097072
v 1.9384557569905851 3.8070847979369926 0.8472633630521724
v 2.08490237244812 3.8070847979369926 0.49370997850970727
v 1.9384557569905851 3.8070847979369926 0.140156593967242
v 1.58490237244812 3.8070847979369926 -0.006290021490292785
v 1.2313489879056547 3.8070847979369926 0.140156593967242
v 1.08490237244812 3.8070847979369926 0.4937099785097071
v 0.7188769842073057 3.4410594096961784 0.4937099785097072
v 0.9725299144670103 3.4410594096961784 1.1060824364908168
v 1.58490237244812 3.4410594096961784 1.3597353667505214
v 2.1972748304292296 3.4410594096961784 1.1060824364908168
v 2.450927760688934 3.4410594096961784 0.4937099785097073
v 2.1972748304292296 3.4410594096961784 -0.1186624794714024
v 1.5849023724481202 3.4410594096961784 -0.372315409731107
v 0.9725299144670103 3.4410594096961784 -0.1186624794714024
v 0.7188769842073057 3.4410594096961784 0.493709978509707
v 0.5849023724481199 2.9410594096961784 0.4937099785097072
v 0.8777956033631895 2.9410594096961784 1.2008167475946376
v 1.58490237244812 2.9410594096961784 1.4937099785097072
v 2.2920091415330504 2.9410594096961784 1.2008167475946376
v 2.58490237244812 2.9410594096961784 0.4937099785097073
v 2.2920091415330504 2.9410594096961784 -0.2133967905752232
v 1.5849023724481202 2.9410594096961784 -0.5062900214902928
v 0.8777956033631895 2.9410594096961784 -0.2133967905752232
v 0.5849023724481199 2.9410594096961784 0.493709978509707
v 0.7188769842073057 2.4410594096961784 0.4937099785097072
v 0.9725299144670103 2.4410594096961784 1.1060824364908168
v 1.58490237244812 2.4410594096961784 1.3597353667505214
v 2.1972748304292296 2.4410594096961784 1.1060824364908168
v 2.450927760688934 2.4410594096961784 0.4937099785097073
v 2.1972748304292296 2.4410594096961784 -0.1186624794714024
v 1.5849023724481202 2.4410594096961784 -0.372315409731107
v 0.9725299144670103 2.4410594096961784 -0.1186624794714024
v 0.7188769842073057 2.4410594096961784 0.493709978509707
v 1.08490237244812 2.075034021455364 0.4937099785097072
v 1.2313489879056547 2.075034021455364 0.8472633630521724
v 1.58490237244812 2.075034021455364 0.9937099785097072
v 1.9384557569905851 2.075034021455364 0.8472633630521724
v 2.08490237244812 2.075034021455364 0.49370997850970727
v 1.9384557569905851 2.075034021455364 0.140156593967242
v 1.58490237244812 2.075034021455364 -0.006290021490292785
v 1.2313489879056547 2.075034021455364 0.140156593967242
v 1.08490237244812 2.075034021455364 0.4937099785097071
v 1.5849023724481197 1.9410594096961784 0.4937099785097072
v 1.58490237244812 1.9410594096961784 0.4937099785097073
v 1.58490237244812 1.9410594096961784 0.4937099785097073
v 1.58490237244812 1.9410594096961784 0.4937099785097073
v 1.5849023724481202 1.9410594096961784 0.4937099785097072
v 1.58490237244812 1.9410594096961784 0.4937099785097071
v 1.58490237244812 1.9410594096961784 0.4937099785097071
v 1.58490237244812 1.9410594096961784 0.4937099785097071
v 1.5849023724481197 1.9410594096961784 0.4937099785097072
vt 0.0625 1
vt 0.1875 1
vt 0.3125 1
vt 0.4375 1
vt 0.5625 1
vt 0.6875 1
vt 0.8125 1
vt 0.9375 1
vt 1.0625 1
vt 0 0.8333333134651184
vt 0.125 0.8333333134651184
vt 0.25 0.8333333134651184
vt 0.375 0.8333333134651184
vt 0.5 0.8333333134651184
vt 0.625 0.8333333134651184
vt 0.75 0.8333333134651184
vt 0.875 0.8333333134651184
vt 1 0.8333333134651184
vt 0 0.6666666865348816
vt 0.125 0.6666666865348816
vt 0.25 0.6666666865348816
vt 0.375 0.6666666865348816
vt 0.5 0.6666666865348816
vt 0.625 0.6666666865348816
vt 0.75 0.6666666865348816
vt 0.875 0.6666666865348816
vt 1 0.6666666865348816
vt 0 0.5
vt 0.125 0.5
vt 0.25 0.5
vt 0.375 0.5
vt 0.5 0.5
vt 0.625 0.5
vt 0.75 0.5
vt 0.875 0.5
vt 1 0.5
vt 0 0.3333333432674408
vt 0.125 0.3333333432674408
vt 0.25 0.3333333432674408
vt 0.375 0.3333333432674408
vt 0.5 0.3333333432674408
vt 0.625 0.3333333432674408
vt 0.75 0.3333333432674408
vt 0.875 0.3333333432674408
vt 1 0.3333333432674408
vt 0 0.1666666716337204
vt 0.125 0.1666666716337204
vt 0.25 0.1666666716337204
vt 0.375 0.1666666716337204
vt 0.5 0.1666666716337204
vt 0.625 0.1666666716337204
vt 0.75 0.1666666716337204
vt 0.875 0.1666666716337204
vt 1 0.1666666716337204
vt -0.0625 0
vt 0.0625 0
vt 0.1875 0
vt 0.3125 0
vt 0.4375 0
vt 0.5625 0
vt 0.6875 0
vt 0.8125 0
vt 0.9375 0
vn 0 1 0
vn 0 1 0
vn 0 1 0
vn 0 1 0
vn 0 1 0
vn 0 1 0
vn 0 1 0
vn 0 1 0
vn 0 1 0
vn -0.5000000067305869 0.8660253998985324 0
vn -0.3535533908144109 0.8660254036038809 0.3535533908144109
vn -3.06161717267588e-17 0.8660253998985324 0.5000000067305869
vn 0.3535533908144109 0.8660254036038809 0.3535533908144109
vn 0.5000000067305869 0.8660253998985324 6.12323434535176e-17
vn 0.3535533908144109 0.8660254036038809 -0.3535533908144109
vn 9.18485085628314e-17 0.8660253998985324 -0.5000000067305869
vn -0.3535533908144109 0.8660254036038809 -0.3535533908144109
vn -0.5000000067305869 0.8660253998985324 -1.224646869070352e-16
vn -0.8660253998985324 0.5000000067305869 0
vn -0.6123724412671231 0.4999999863530877 0.6123724412671231
vn -5.302876307448087e-17 0.5000000067305869 0.8660253998985324
vn 0.6123724412671231 0.4999999863530877 0.6123724412671231
vn 0.8660253998985324 0.5000000067305869 1.0605752614896174e-16
vn 0.6123724412671231 0.4999999863530877 -0.6123724412671231
vn 1.5908628922344263e-16 0.5000000067305869 -0.8660253998985324
vn -0.6123724412671231 0.4999999863530877 -0.6123724412671231
vn -0.8660253998985324 0.5000000067305869 -2.1211505229792348e-16
vn -1 6.123234262925839e-17 0
vn -0.7071067811865476 6.123234367720532e-17 0.7071067811865476
vn -6.123234262925839e-17 6.123234262925839e-17 1
vn 0.7071067811865476 6.123234367720532e-17 0.7071067811865476
vn 1 6.123234262925839e-17 1.2246468525851679e-16
vn 0.7071067811865476 6.123234367720532e-17 -0.7071067811865476
vn 1.8369701465288538e-16 6.123234262925839e-17 -1
vn -0.7071067811865476 6.123234367720532e-17 -0.7071067811865476
vn -1 6.123234262925839e-17 -2.4492937051703357e-16
vn -0.8660253998985324 -0.5000000067305869 0
vn -0.6123724412671231 -0.4999999863530877 0.6123724412671231
vn -5.302876307448087e-17 -0.5000000067305869 0.8660253998985324
vn 0.6123724412671231 -0.4999999863530877 0.6123724412671231
vn 0.8660253998985324 -0.5000000067305869 1.0605752614896174e-16
vn 0.6123724412671231 -0.4999999863530877 -0.6123724412671231
vn 1.5908628922344263e-16 -0.5000000067305869 -0.8660253998985324
vn -0.6123724412671231 -0.4999999863530877 -0.6123724412671231
vn -0.8660253998985324 -0.5000000067305869 -2.1211505229792348e-16
vn -0.5000000067305869 -0.8660253998985324 0
vn -0.3535533908144109 -0.8660254036038809 0.3535533908144109
vn -3.06161717267588e-17 -0.8660253998985324 0.5000000067305869
vn 0.3535533908144109 -0.8660254036038809 0.3535533908144109
vn 0.5000000067305869 -0.8660253998985324 6.12323434535176e-17
vn 0.3535533908144109 -0.8660254036038809 -0.3535533908144109
vn 9.18485085628314e-17 -0.8660253998985324 -0.5000000067305869
vn -0.3535533908144109 -0.8660254036038809 -0.3535533908144109
vn -0.5000000067305869 -0.8660253998985324 -1.224646869070352e-16
vn -1.2246468525851679e-16 -1 0
vn -8.659560603426554e-17 -1 8.659560603426554e-17
vn -7.498798786105971e-33 -1 1.2246468525851679e-16
vn 8.659560603426554e-17 -1 8.659560603426554e-17
vn 1.2246468525851679e-16 -1 1.4997597572211942e-32
vn 8.659560603426554e-17 -1 -8.659560603426554e-17
vn 2.2496396358317913e-32 -1 -1.2246468525851679e-16
vn -8.659560603426554e-17 -1 -8.659560603426554e-17
vn -1.2246468525851679e-16 -1 -2.9995195144423884e-32
f 29/29/29 38/38/38 39/39/39
f 30/30/30 39/39/39 40/40/40
f 31/31/31 40/40/40 41/41/41
f 32/32/32 41/41/41 42/42/42
f 33/33/33 42/42/42 43/43/43
f 34/34/34 43/43/43 44/44/44
f 35/35/35 44/44/44 45/45/45
f 36/36/36 45/45/45 46/46/46
f 39/39/39 38/38/38 48/48/48
f 38/38/38 47/47/47 48/48/48
f 40/40/40 39/39/39 49/49/49
f 39/39/39 48/48/48 49/49/49
f 41/41/41 40/40/40 50/50/50
f 40/40/40 49/49/49 50/50/50
f 42/42/42 41/41/41 51/51/51
f 41/41/41 50/50/50 51/51/51
f 43/43/43 42/42/42 52/52/52
f 42/42/42 51/51/51 52/52/52
f 44/44/44 43/43/43 53/53/53
f 43/43/43 52/52/52 53/53/53
f 45/45/45 44/44/44 54/54/54
f 44/44/44 53/53/53 54/54/54
f 46/46/46 45/45/45 55/55/55
f 45/45/45 54/54/54 55/55/55
f 48/48/48 47/47/47 57/57/57
f 47/47/47 56/56/56 57/57/57
f 49/49/49 48/48/48 58/58/58
f 48/48/48 57/57/57 58/58/58
f 50/50/50 49/49/49 59/59/59
f 49/49/49 58/58/58 59/59/59
f 51/51/51 50/50/50 60/60/60
f 50/50/50 59/59/59 60/60/60
f 52/52/52 51/51/51 61/61/61
f 51/51/51 60/60/60 61/61/61
f 53/53/53 52/52/52 62/62/62
f 52/52/52 61/61/61 62/62/62
f 54/54/54 53/53/53 63/63/63
f 53/53/53 62/62/62 63/63/63
f 55/55/55 54/54/54 64/64/64
f 54/54/54 63/63/63 64/64/64
f 57/57/57 56/56/56 66/66/66
f 56/56/56 65/65/65 66/66/66
f 58/58/58 57/57/57 67/67/67
f 57/57/57 66/66/66 67/67/67
f 59/59/59 58/58/58 68/68/68
f 58/58/58 67/67/67 68/68/68
f 60/60/60 59/59/59 69/69/69
f 59/59/59 68/68/68 69/69/69
f 61/61/61 60/60/60 70/70/70
f 60/60/60 69/69/69 70/70/70
f 62/62/62 61/61/61 71/71/71
f 61/61/61 70/70/70 71/71/71
f 63/63/63 62/62/62 72/72/72
f 62/62/62 71/71/71 72/72/72
f 64/64/64 63/63/63 73/73/73
f 63/63/63 72/72/72 73/73/73
f 66/66/66 65/65/65 75/75/75
f 65/65/65 74/74/74 75/75/75
f 67/67/67 66/66/66 76/76/76
f 66/66/66 75/75/75 76/76/76
f 68/68/68 67/67/67 77/77/77
f 67/67/67 76/76/76 77/77/77
f 69/69/69 68/68/68 78/78/78
f 68/68/68 77/77/77 78/78/78
f 70/70/70 69/69/69 79/79/79
f 69/69/69 78/78/78 79/79/79
f 71/71/71 70/70/70 80/80/80
f 70/70/70 79/79/79 80/80/80
f 72/72/72 71/71/71 81/81/81
f 71/71/71 80/80/80 81/81/81
f 73/73/73 72/72/72 82/82/82
f 72/72/72 81/81/81 82/82/82
f 75/75/75 74/74/74 84/84/84
f 76/76/76 75/75/75 85/85/85
f 77/77/77 76/76/76 86/86/86
f 78/78/78 77/77/77 87/87/87
f 79/79/79 78/78/78 88/88/88
f 80/80/80 79/79/79 89/89/89
f 81/81/81 80/80/80 90/90/90
f 82/82/82 81/81/81 91/91/91
